<svg width="18" height="23" viewBox="0 0 18 23" fill="none" xmlns="http://www.w3.org/2000/svg">
<path d="M17.3903 9.144C17.3903 10.7227 17.1449 12.2053 16.6543 13.592C16.1636 14.9787 15.5236 16.2693 14.7343 17.464C13.9663 18.6373 13.0916 19.6933 12.1103 20.632C11.1503 21.5707 10.1903 22.36 9.23025 23H2.60625C3.99292 22.04 5.23025 21.1227 6.31825 20.248C7.42758 19.352 8.38758 18.4667 9.19825 17.592C10.0303 16.696 10.7023 15.7787 11.2143 14.84C11.7476 13.9013 12.1316 12.888 12.3663 11.8L12.0783 11.704C11.8863 12.1307 11.6409 12.5467 11.3423 12.952C11.0649 13.3573 10.7236 13.72 10.3183 14.04C9.93425 14.3387 9.46492 14.584 8.91025 14.776C8.37692 14.968 7.74758 15.064 7.02225 15.064C6.08358 15.064 5.20892 14.904 4.39825 14.584C3.58758 14.2427 2.88358 13.7733 2.28625 13.176C1.71025 12.5573 1.25158 11.8213 0.91025 10.968C0.568917 10.1147 0.39825 9.15467 0.39825 8.088C0.39825 6.95733 0.600917 5.912 1.00625 4.952C1.41158 3.992 1.97692 3.17067 2.70225 2.488C3.44892 1.784 4.34492 1.24 5.39025 0.855999C6.43558 0.471999 7.59825 0.279999 8.87825 0.279999C10.2223 0.279999 11.4169 0.493332 12.4623 0.919998C13.5289 1.32533 14.4249 1.92267 15.1503 2.712C15.8756 3.48 16.4303 4.408 16.8143 5.496C17.1983 6.584 17.3903 7.8 17.3903 9.144ZM8.91025 11.384C9.99825 11.384 10.8516 11.096 11.4703 10.52C12.0889 9.92267 12.3983 9.06933 12.3983 7.96V7.512C12.3983 6.40267 12.0996 5.54933 11.5023 4.952C10.9263 4.33333 10.0623 4.024 8.91025 4.024C7.75825 4.024 6.88358 4.33333 6.28625 4.952C5.68892 5.54933 5.39025 6.40267 5.39025 7.512V7.96C5.39025 9.06933 5.68892 9.92267 6.28625 10.52C6.90492 11.096 7.77958 11.384 8.91025 11.384Z" fill="black"/>
</svg>
