<svg width="323" height="61" viewBox="0 0 323 61" fill="none" xmlns="http://www.w3.org/2000/svg">
<path d="M18.2525 48.768C12.2792 48.768 7.86317 46.7413 5.00451 42.688C2.18851 38.6347 0.780506 32.96 0.780506 25.664C0.780506 18.368 2.18851 12.6933 5.00451 8.64C7.86317 4.58666 12.2792 2.56 18.2525 2.56C24.2258 2.56 28.6205 4.58666 31.4365 8.64C34.2952 12.6933 35.7245 18.368 35.7245 25.664C35.7245 32.96 34.2952 38.6347 31.4365 42.688C28.6205 46.7413 24.2258 48.768 18.2525 48.768ZM18.2525 9.792C15.2658 9.792 13.1752 10.816 11.9805 12.864C10.7858 14.912 10.1885 17.792 10.1885 21.504V29.312C10.1885 29.568 10.2098 29.7813 10.2525 29.952L24.9725 13.888C23.7778 11.1573 21.5378 9.792 18.2525 9.792ZM18.2525 41.536C21.2392 41.536 23.3298 40.512 24.5245 38.464C25.7192 36.416 26.3165 33.536 26.3165 29.824V22.016C26.3165 21.76 26.2952 21.5467 26.2525 21.376L11.5325 37.44C12.7272 40.1707 14.9672 41.536 18.2525 41.536ZM54.0675 48.768C51.6782 48.768 49.9502 48.256 48.8835 47.232C47.8595 46.1653 47.3475 44.9067 47.3475 43.456V41.216C47.3475 39.7653 47.8595 38.528 48.8835 37.504C49.9502 36.4373 51.6782 35.904 54.0675 35.904C56.4568 35.904 58.1635 36.4373 59.1875 37.504C60.2542 38.528 60.7875 39.7653 60.7875 41.216V43.456C60.7875 44.9067 60.2542 46.1653 59.1875 47.232C58.1635 48.256 56.4568 48.768 54.0675 48.768ZM104.283 11.712H83.6105L82.5865 25.856H83.1625C83.6318 24.832 84.1652 23.8933 84.7625 23.04C85.3598 22.144 86.0638 21.3973 86.8745 20.8C87.6852 20.16 88.6238 19.6693 89.6905 19.328C90.7572 18.9867 91.9732 18.816 93.3385 18.816C95.1732 18.816 96.9012 19.136 98.5225 19.776C100.187 20.416 101.637 21.3547 102.875 22.592C104.155 23.7867 105.157 25.28 105.883 27.072C106.608 28.8213 106.971 30.8053 106.971 33.024C106.971 35.2853 106.587 37.376 105.819 39.296C105.051 41.216 103.92 42.88 102.427 44.288C100.976 45.696 99.1625 46.8053 96.9865 47.616C94.8105 48.384 92.3358 48.768 89.5625 48.768C87.3865 48.768 85.4452 48.5333 83.7385 48.064C82.0318 47.5947 80.5172 46.976 79.1945 46.208C77.9145 45.3973 76.7838 44.48 75.8025 43.456C74.8638 42.3893 74.0532 41.3013 73.3705 40.192L80.3465 34.688C80.8585 35.5413 81.3918 36.352 81.9465 37.12C82.5438 37.888 83.2052 38.5707 83.9305 39.168C84.6985 39.7227 85.5305 40.1707 86.4265 40.512C87.3652 40.8107 88.4318 40.96 89.6265 40.96C92.0158 40.96 93.8078 40.32 95.0025 39.04C96.2398 37.7173 96.8585 35.968 96.8585 33.792V33.28C96.8585 31.1893 96.2398 29.5467 95.0025 28.352C93.7652 27.1573 92.0585 26.56 89.8825 26.56C88.0905 26.56 86.5972 26.9227 85.4025 27.648C84.2505 28.3307 83.3758 29.0133 82.7785 29.696L74.9065 28.608L76.5705 3.328H104.283V11.712ZM117.058 26.368C113.858 26.368 111.383 25.3227 109.634 23.232C107.884 21.0987 107.01 18.176 107.01 14.464C107.01 10.752 107.884 7.85067 109.634 5.76C111.383 3.62666 113.858 2.56 117.058 2.56C120.258 2.56 122.732 3.62666 124.482 5.76C126.231 7.85067 127.106 10.752 127.106 14.464C127.106 18.176 126.231 21.0987 124.482 23.232C122.732 25.3227 120.258 26.368 117.058 26.368ZM117.058 20.8C118.295 20.8 119.148 20.352 119.618 19.456C120.13 18.56 120.386 17.3653 120.386 15.872V13.056C120.386 11.5627 120.13 10.368 119.618 9.472C119.148 8.576 118.295 8.128 117.058 8.128C115.82 8.128 114.946 8.576 114.434 9.472C113.964 10.368 113.73 11.5627 113.73 13.056V15.872C113.73 17.3653 113.964 18.56 114.434 19.456C114.946 20.352 115.82 20.8 117.058 20.8ZM137.538 3.328H144.77L135.106 22.528H127.874L137.538 3.328ZM116.29 28.8H123.522L113.858 48H106.626L116.29 28.8ZM134.402 48.768C131.202 48.768 128.727 47.7227 126.978 45.632C125.228 43.4987 124.354 40.576 124.354 36.864C124.354 33.152 125.228 30.2507 126.978 28.16C128.727 26.0267 131.202 24.96 134.402 24.96C137.602 24.96 140.076 26.0267 141.826 28.16C143.575 30.2507 144.45 33.152 144.45 36.864C144.45 40.576 143.575 43.4987 141.826 45.632C140.076 47.7227 137.602 48.768 134.402 48.768ZM134.402 43.2C135.639 43.2 136.492 42.752 136.962 41.856C137.474 40.96 137.73 39.7653 137.73 38.272V35.456C137.73 33.9627 137.474 32.768 136.962 31.872C136.492 30.976 135.639 30.528 134.402 30.528C133.164 30.528 132.29 30.976 131.778 31.872C131.308 32.768 131.074 33.9627 131.074 35.456V38.272C131.074 39.7653 131.308 40.96 131.778 41.856C132.29 42.752 133.164 43.2 134.402 43.2ZM197.328 48.768C194.768 48.768 192.464 48.384 190.416 47.616C188.368 46.8053 186.618 45.6533 185.168 44.16C183.76 42.6667 182.672 40.8533 181.904 38.72C181.136 36.5867 180.752 34.176 180.752 31.488C180.752 28.8 181.136 26.3893 181.904 24.256C182.672 22.1227 183.76 20.3093 185.168 18.816C186.618 17.3227 188.368 16.192 190.416 15.424C192.464 14.6133 194.768 14.208 197.328 14.208C199.888 14.208 202.192 14.6133 204.24 15.424C206.288 16.192 208.016 17.3227 209.424 18.816C210.874 20.3093 211.984 22.1227 212.752 24.256C213.52 26.3893 213.904 28.8 213.904 31.488C213.904 34.176 213.52 36.5867 212.752 38.72C211.984 40.8533 210.874 42.6667 209.424 44.16C208.016 45.6533 206.288 46.8053 204.24 47.616C202.192 48.384 199.888 48.768 197.328 48.768ZM197.328 41.728C199.461 41.728 201.125 41.0667 202.32 39.744C203.514 38.4213 204.112 36.544 204.112 34.112V28.864C204.112 26.432 203.514 24.5547 202.32 23.232C201.125 21.9093 199.461 21.248 197.328 21.248C195.194 21.248 193.53 21.9093 192.336 23.232C191.141 24.5547 190.544 26.432 190.544 28.864V34.112C190.544 36.544 191.141 38.4213 192.336 39.744C193.53 41.0667 195.194 41.728 197.328 41.728ZM218.103 48V14.976H227.575V20.992H227.959C228.343 20.0533 228.812 19.1787 229.367 18.368C229.921 17.5573 230.583 16.8533 231.351 16.256C232.161 15.616 233.079 15.1253 234.103 14.784C235.169 14.4 236.364 14.208 237.687 14.208C239.265 14.208 240.716 14.4853 242.039 15.04C243.361 15.552 244.492 16.3413 245.431 17.408C246.369 18.4747 247.095 19.776 247.607 21.312C248.161 22.848 248.439 24.6187 248.439 26.624V48H238.967V27.904C238.967 23.6373 237.111 21.504 233.399 21.504C232.673 21.504 231.948 21.6107 231.223 21.824C230.54 21.9947 229.921 22.2933 229.367 22.72C228.812 23.104 228.364 23.5947 228.023 24.192C227.724 24.7893 227.575 25.4933 227.575 26.304V48H218.103ZM254.11 40.64H264.222V8H254.11V0.639999H273.694V40.64H283.806V48H254.11V40.64ZM313.093 14.976H322.757L307.205 53.312C306.223 55.744 304.922 57.6 303.301 58.88C301.679 60.16 299.461 60.8 296.645 60.8H290.117V53.44H298.053L300.101 47.808L286.789 14.976H296.965L301.765 28.864L304.773 38.464H305.285L308.165 28.864L313.093 14.976Z" fill="white"/>
</svg>
