<svg width="18" height="24" viewBox="0 0 18 24" fill="none" xmlns="http://www.w3.org/2000/svg">
<path d="M9.13425 23.384C7.79025 23.384 6.58492 23.1813 5.51825 22.776C4.47292 22.3493 3.58758 21.752 2.86225 20.984C2.13692 20.1947 1.58225 19.256 1.19825 18.168C0.81425 17.08 0.62225 15.864 0.62225 14.52C0.62225 12.9627 0.867583 11.4907 1.35825 10.104C1.84892 8.696 2.47825 7.40533 3.24625 6.232C4.03558 5.03733 4.91025 3.97067 5.87025 3.032C6.85158 2.09333 7.82225 1.304 8.78225 0.664H15.4062C14.0196 1.624 12.7716 2.552 11.6623 3.448C10.5743 4.32267 9.61425 5.208 8.78225 6.104C7.97158 6.97867 7.29958 7.88533 6.76625 8.824C6.25425 9.76267 5.88092 10.776 5.64625 11.864L5.93425 11.96C6.12625 11.5333 6.36092 11.1173 6.63825 10.712C6.91558 10.3067 7.25692 9.95467 7.66225 9.656C8.06758 9.336 8.53692 9.08 9.07025 8.888C9.62492 8.696 10.2649 8.6 10.9903 8.6C11.9289 8.6 12.8036 8.77067 13.6143 9.112C14.4249 9.432 15.1183 9.90133 15.6943 10.52C16.2916 11.1173 16.7609 11.8427 17.1023 12.696C17.4436 13.5493 17.6143 14.5093 17.6143 15.576C17.6143 16.7067 17.4116 17.752 17.0063 18.712C16.6009 19.672 16.0249 20.504 15.2783 21.208C14.5529 21.8907 13.6676 22.424 12.6223 22.808C11.5769 23.192 10.4143 23.384 9.13425 23.384ZM9.10225 19.64C10.2543 19.64 11.1289 19.3413 11.7263 18.744C12.3236 18.1253 12.6223 17.2613 12.6223 16.152V15.704C12.6223 14.5947 12.3129 13.752 11.6943 13.176C11.0969 12.5787 10.2329 12.28 9.10225 12.28C8.01425 12.28 7.16092 12.5787 6.54225 13.176C5.92358 13.752 5.61425 14.5947 5.61425 15.704V16.152C5.61425 17.2613 5.90225 18.1253 6.47825 18.744C7.07558 19.3413 7.95025 19.64 9.10225 19.64Z" fill="black"/>
</svg>
