<svg width="18" height="24" viewBox="0 0 18 24" fill="none" xmlns="http://www.w3.org/2000/svg">
<path d="M8.14225 9.496C9.37958 9.496 10.2756 9.26133 10.8303 8.792C11.4063 8.32267 11.6943 7.74667 11.6943 7.064V6.84C11.6943 6.02933 11.4169 5.38933 10.8623 4.92C10.3289 4.42933 9.56092 4.184 8.55825 4.184C7.64092 4.184 6.77692 4.41867 5.96625 4.888C5.17692 5.336 4.50492 5.98667 3.95025 6.84L0.91025 4.024C1.33692 3.46933 1.80625 2.968 2.31825 2.52C2.83025 2.05066 3.39558 1.656 4.01425 1.336C4.63292 0.994666 5.32625 0.738666 6.09425 0.567999C6.88358 0.375999 7.76892 0.279999 8.75025 0.279999C9.96625 0.279999 11.0649 0.418666 12.0463 0.695999C13.0276 0.973333 13.8596 1.37867 14.5423 1.912C15.2463 2.424 15.7903 3.04267 16.1743 3.768C16.5583 4.49333 16.7503 5.304 16.7503 6.2C16.7503 6.904 16.6329 7.544 16.3983 8.12C16.1636 8.696 15.8436 9.19733 15.4383 9.624C15.0543 10.0507 14.5956 10.4027 14.0623 10.68C13.5503 10.936 12.9956 11.1173 12.3983 11.224V11.416C13.7636 11.6507 14.8943 12.2267 15.7903 13.144C16.7076 14.04 17.1663 15.256 17.1663 16.792C17.1663 17.7947 16.9529 18.7013 16.5263 19.512C16.1209 20.3227 15.5343 21.016 14.7663 21.592C14.0196 22.168 13.1023 22.616 12.0143 22.936C10.9476 23.2347 9.75292 23.384 8.43025 23.384C7.29958 23.384 6.29692 23.2667 5.42225 23.032C4.56892 22.7973 3.81158 22.488 3.15025 22.104C2.48892 21.6987 1.91292 21.24 1.42225 20.728C0.952917 20.1947 0.536917 19.6507 0.17425 19.096L3.72625 16.344C4.21692 17.2613 4.82492 18.0187 5.55025 18.616C6.29692 19.192 7.28892 19.48 8.52625 19.48C9.67825 19.48 10.5636 19.2133 11.1823 18.68C11.8009 18.1467 12.1103 17.4107 12.1103 16.472V16.248C12.1103 15.3307 11.7583 14.648 11.0543 14.2C10.3503 13.7307 9.36892 13.496 8.11025 13.496H6.03025V9.496H8.14225Z" fill="black"/>
</svg>
