<svg width="36" height="23" viewBox="0 0 36 23" fill="none" xmlns="http://www.w3.org/2000/svg">
<path d="M2.4605 23V19.128H8.4765V4.152H8.1885L3.6445 10.104L0.572499 7.704L5.9165 0.664H13.2765V19.128H18.0125V23H2.4605ZM35.12 23H19.056V18.616L26.096 12.76C27.312 11.7147 28.1867 10.808 28.72 10.04C29.2533 9.272 29.52 8.46133 29.52 7.608V7.288C29.52 6.34933 29.2427 5.64533 28.688 5.176C28.1333 4.68533 27.3867 4.44 26.448 4.44C25.3813 4.44 24.56 4.74933 23.984 5.368C23.408 5.98667 23.0027 6.72267 22.768 7.576L18.576 5.976C18.832 5.208 19.184 4.48267 19.632 3.8C20.08 3.096 20.6453 2.488 21.328 1.976C22.032 1.464 22.8427 1.05866 23.76 0.759998C24.6773 0.439999 25.7333 0.279999 26.928 0.279999C28.144 0.279999 29.232 0.450666 30.192 0.792C31.152 1.13333 31.9627 1.60267 32.624 2.2C33.2853 2.79733 33.7867 3.512 34.128 4.344C34.4693 5.15467 34.64 6.04 34.64 7C34.64 7.93867 34.48 8.80267 34.16 9.592C33.8613 10.36 33.4347 11.0853 32.88 11.768C32.3467 12.4507 31.7067 13.112 30.96 13.752C30.2347 14.392 29.456 15.032 28.624 15.672L24.368 18.968H35.12V23Z" fill="black"/>
</svg>
